# xmcd CD database file
#
# Track frame offsets:
#	150
#	14535
#	29779
#	37951
#	52145
#	68888
#	84597
#	96655
#	109865
#	121311
#
# Disc length: 1781 seconds
#
# Revision: 0
# Processed by: cddbd v1.5.1PL2 Copyright (c) Steve Scherf et al.
# Submitted via: CDex 1.51
#
DISCID=8f06f30a
DTITLE=Oneil Devost - Que serais-je sans toi
DYEAR=1900
DGENRE=Québécois
TTITLE0=que serais-je sans toi
TTITLE1=un amour flétrit
TTITLE2=l'Endetter
TTITLE3=je t'aime de mille façons
TTITLE4=Les Canadiens de Montréal
TTITLE5=Harley Davidson
TTITLE6=pour le meilleur ,pour le pire
TTITLE7=un ange a partie ce soir
TTITLE8=seuil de France
TTITLE9=disons adieu comme on dit bonjour
EXTD=
EXTT0=
EXTT1=
EXTT2=
EXTT3=
EXTT4=
EXTT5=
EXTT6=
EXTT7=
EXTT8=
EXTT9=
PLAYORDER=
